<svg xmlns="http://www.w3.org/2000/svg" version="1.1" xmlns:xlink="http://www.w3.org/1999/xlink" xmlns:svgjs="http://svgjs.dev/svgjs" width="1000" height="750" viewBox="0 0 1000 750"><rect width="1000" height="750" fill="#ffffff"></rect><g transform="matrix(0.834,0,0,0.834,82.49454670755205,246.89020603548963)"><svg viewBox="0 0 396 122" data-background-color="#ffffff" preserveAspectRatio="xMidYMid meet" height="308" width="1000" xmlns="http://www.w3.org/2000/svg" xmlns:xlink="http://www.w3.org/1999/xlink"><g id="tight-bounds" transform="matrix(1,0,0,1,0.23999940504722872,-0.15492983404081428)"><svg viewBox="0 0 395.52 114.61228253520841" height="114.61228253520841" width="395.52"><g><svg viewBox="0 0 592.5904283990565 171.71860236481808" height="114.61228253520841" width="395.52"><g transform="matrix(1,0,0,1,197.07042839905645,38.04830439989934)"><svg viewBox="0 0 395.52 95.62199356501941" height="95.62199356501941" width="395.52"><g id="textblocktransform"><svg viewBox="0 0 395.52 95.62199356501941" height="95.62199356501941" width="395.52" id="textblock"><g><svg viewBox="0 0 395.52 53.69420448126529" height="53.69420448126529" width="395.52"><g transform="matrix(1,0,0,1,0,0)"><svg width="395.52" viewBox="1.850000023841858 -35.5 265.5299987792969 36.04999923706055" height="53.69420448126529" data-palette-color="#000000"><path d="M7.75-9.75Q8-7.55 9.55-6.2 11.1-4.85 13.6-4.85L13.6-4.85Q15.7-4.85 17.03-5.55 18.35-6.25 18.95-7.25 19.55-8.25 19.55-9.2L19.55-9.2Q19.55-11.4 18.48-12.88 17.4-14.35 15.83-15.23 14.25-16.1 11.55-17.25L11.55-17.25Q8.6-18.5 6.88-19.53 5.15-20.55 3.93-22.33 2.7-24.1 2.7-26.85L2.7-26.85Q2.7-29.05 3.95-31.03 5.2-33 7.75-34.25 10.3-35.5 14-35.5L14-35.5Q16.45-35.5 18.05-35.15 19.65-34.8 21.3-34L21.3-34 19.55-28.8Q17.75-29.4 16.63-29.65 15.5-29.9 14.05-29.9L14.05-29.9Q11.2-29.9 9.85-28.9 8.5-27.9 8.65-26.35L8.65-26.35Q8.8-25.1 10.18-24.2 11.55-23.3 14.45-22L14.45-22Q17.85-20.5 20.1-19.15 22.35-17.8 23.98-15.45 25.6-13.1 25.6-9.7L25.6-9.7Q25.6-5.25 22.65-2.35 19.7 0.55 13.65 0.55L13.65 0.55Q9.95 0.55 7.33-0.83 4.7-2.2 3.33-4.38 1.95-6.55 1.85-8.9L1.85-8.9 7.75-9.75ZM47.3-35.05L52.8-35.05 52.8-9.3Q52.8-4.25 49.72-1.95 46.65 0.35 42.3 0.35L42.3 0.35Q37.95 0.35 34.85-1.95 31.75-4.25 31.75-9.3L31.75-9.3 31.75-35.05 37.25-35.05 37.25-11.5Q37.25-8.1 38.27-6.58 39.3-5.05 42.25-5.05L42.25-5.05Q45.25-5.05 46.27-6.58 47.3-8.1 47.3-11.5L47.3-11.5 47.3-35.05ZM58.59-15.4L58.59-20.65 74.59-20.65 74.59-15.4 58.59-15.4ZM80.74 0L80.74-35.05 90.14-35.05Q95.79-35.05 98.77-31.95 101.74-28.85 101.74-23.7L101.74-23.7 101.74-10Q101.74 0 91.14 0L91.14 0 80.74 0ZM96.24-24.2Q96.24-26.95 94.87-28.23 93.49-29.5 90.64-29.5L90.64-29.5 86.24-29.5 86.24-5.05 90.34-5.05Q93.04-5.05 94.64-5.88 96.24-6.7 96.24-9.5L96.24-9.5 96.24-24.2ZM121.14 0L119.09-9.15 111.04-9.15 109.09 0 102.89 0 111.09-35 118.84-35 127.69 0 121.14 0ZM114.94-25.8L112.34-15 117.79-15 114.94-25.8ZM148.24 0L144.89-9.75 137.59-9.75 137.59 0 132.09 0 132.09-35 143.94-35Q147.24-35 149.44-33.38 151.64-31.75 152.71-29.05 153.79-26.35 153.79-23.1L153.79-23.1Q153.79-20.65 153.59-18.85 153.39-17.05 152.56-15.1 151.74-13.15 149.94-11.6L149.94-11.6 153.84 0 148.24 0ZM142.64-15Q145.09-15 146.26-16.28 147.44-17.55 147.71-19.2 147.99-20.85 147.99-23.1L147.99-23.1Q147.99-25.75 147.24-27.13 146.49-28.5 145.14-28.98 143.79-29.45 141.64-29.45L141.64-29.45 137.59-29.45 137.59-15 142.64-15ZM162.83-9.75Q163.08-7.55 164.63-6.2 166.18-4.85 168.68-4.85L168.68-4.85Q170.78-4.85 172.11-5.55 173.43-6.25 174.03-7.25 174.63-8.25 174.63-9.2L174.63-9.2Q174.63-11.4 173.56-12.88 172.48-14.35 170.91-15.23 169.33-16.1 166.63-17.25L166.63-17.25Q163.68-18.5 161.96-19.53 160.23-20.55 159.01-22.33 157.78-24.1 157.78-26.85L157.78-26.85Q157.78-29.05 159.03-31.03 160.28-33 162.83-34.25 165.38-35.5 169.08-35.5L169.08-35.5Q171.53-35.5 173.13-35.15 174.73-34.8 176.38-34L176.38-34 174.63-28.8Q172.83-29.4 171.71-29.65 170.58-29.9 169.13-29.9L169.13-29.9Q166.28-29.9 164.93-28.9 163.58-27.9 163.73-26.35L163.73-26.35Q163.88-25.1 165.26-24.2 166.63-23.3 169.53-22L169.53-22Q172.93-20.5 175.18-19.15 177.43-17.8 179.06-15.45 180.68-13.1 180.68-9.7L180.68-9.7Q180.68-5.25 177.73-2.35 174.78 0.55 168.73 0.55L168.73 0.55Q165.03 0.55 162.41-0.83 159.78-2.2 158.41-4.38 157.03-6.55 156.93-8.9L156.93-8.9 162.83-9.75ZM203.08 0L203.08-15.4 192.53-15.4 192.53 0 187.03 0 187.03-35 192.53-35 192.53-20.65 203.08-20.65 203.08-35 208.53-35 208.53 0 203.08 0ZM231.83 0L229.78-9.15 221.73-9.15 219.78 0 213.58 0 221.78-35 229.53-35 238.38 0 231.83 0ZM225.63-25.8L223.03-15 228.48-15 225.63-25.8ZM261.83 0L248.28-23.65 248.28 0 242.78 0 242.78-35 248.28-35 261.83-11.5 261.83-35 267.38-35 267.38 0 261.83 0Z" opacity="1" transform="matrix(1,0,0,1,0,0)" fill="#000000" class="undefined-text-0" data-fill-palette-color="primary" id="text-0"></path></svg></g></svg></g><g transform="matrix(1,0,0,1,0,66.37011749838447)"><svg viewBox="0 0 232.209792 29.25187606663494" height="29.25187606663494" width="232.209792"><g transform="matrix(1,0,0,1,0,0)"><svg width="232.209792" viewBox="1.7999999523162842 -39.150001525878906 315.1200256347656 39.70000076293945" height="29.25187606663494" data-palette-color="#61777f"><path d="M18.85 0.55Q13.5 0.55 9.65-1.85 5.8-4.25 3.8-8.6 1.8-12.95 1.8-18.75L1.8-18.75Q1.8-24.2 4.15-28.5 6.5-32.8 10.55-35.18 14.6-37.55 19.6-37.55L19.6-37.55Q22.15-37.55 24.53-37.15 26.9-36.75 28.35-36.4 29.8-36.05 30.15-35.95L30.15-35.95 29.75-27.8 27.15-27.8 26.05-33.6Q25.3-34.25 23.35-34.7 21.4-35.15 18.6-35.15L18.6-35.15Q15.15-35.15 12.4-33.27 9.65-31.4 8.08-27.8 6.5-24.2 6.5-19.2L6.5-19.2Q6.5-14.5 7.88-10.55 9.25-6.6 12.05-4.23 14.85-1.85 18.95-1.85L18.95-1.85Q21.8-1.85 23.4-2.33 25-2.8 26.1-3.7L26.1-3.7 28.1-8.4 30.55-8.05 29.3-1.35Q28.1-1.3 26.4-0.7L26.4-0.7Q24.6-0.1 22.95 0.23 21.3 0.55 18.85 0.55L18.85 0.55ZM34.7-14.05Q34.7-18.4 36.52-21.7 38.35-25 41.32-26.75 44.3-28.5 47.55-28.5L47.55-28.5Q53.85-28.5 56.87-24.4 59.9-20.3 59.9-13.9L59.9-13.9Q59.9-9.55 58.07-6.25 56.25-2.95 53.27-1.2 50.3 0.55 47.05 0.55L47.05 0.55Q40.75 0.55 37.72-3.55 34.7-7.65 34.7-14.05L34.7-14.05ZM47.3-2.05Q51.15-2.05 53.25-5 55.35-7.95 55.35-13.6L55.35-13.6Q55.35-19 53.4-22.45 51.45-25.9 47.35-25.9L47.35-25.9Q43.5-25.9 41.37-22.95 39.25-20 39.25-14.35L39.25-14.35Q39.25-8.9 41.22-5.48 43.2-2.05 47.3-2.05L47.3-2.05ZM64.4 0L64.4-2.15 67.6-2.55 67.6-24.45 63.75-25.3 63.75-27.55 70.1-28.35 71.2-27.55 71.2-25.35 71.15-24.1Q73-25.7 76-27.05 79-28.4 81.45-28.4L81.45-28.4Q84.15-28.4 85.77-27.5 87.4-26.6 88.25-24.7L88.25-24.7Q89.8-26 92.77-27.2 95.75-28.4 98.25-28.4L98.25-28.4Q101.4-28.4 103.12-27.2 104.85-26 105.55-23.5 106.25-21 106.25-16.75L106.25-16.75 106.25-2.55 110.05-2.15 110.05 0 98.84 0 98.84-2.15 102.25-2.55 102.25-16.6Q102.25-19.75 101.8-21.6 101.35-23.45 100.05-24.4 98.75-25.35 96.25-25.35L96.25-25.35Q94.4-25.35 92.37-24.53 90.35-23.7 88.9-22.65L88.9-22.65Q89.4-20.35 89.4-16.65L89.4-16.65 89.4-2.55 93.2-2.15 93.2 0 81.75 0 81.75-2.15 85.35-2.55 85.35-16.7Q85.35-19.9 84.97-21.7 84.6-23.5 83.4-24.4 82.2-25.3 79.85-25.3L79.85-25.3Q77.9-25.3 75.62-24.33 73.35-23.35 71.65-22L71.65-22 71.65-2.55 75.2-2.15 75.2 0 64.4 0ZM125.79 0.55Q119.99 0.55 116.87-3.43 113.74-7.4 113.74-14L113.74-14Q113.74-18.25 115.39-21.55 117.04-24.85 119.97-26.68 122.89-28.5 126.54-28.5L126.54-28.5Q130.99-28.5 133.47-25.95 135.94-23.4 136.14-18.6L136.14-18.6Q136.14-15.5 135.84-14.2L135.84-14.2 118.04-14.2Q118.04-8.95 120.42-5.63 122.79-2.3 127.09-2.3L127.09-2.3Q129.19-2.3 131.39-3.05 133.59-3.8 134.79-4.85L134.79-4.85 135.59-3Q134.14-1.5 131.37-0.48 128.59 0.55 125.79 0.55L125.79 0.55ZM118.09-16.55L131.64-16.55Q131.79-17.6 131.79-18.75L131.79-18.75Q131.74-22.05 130.22-24 128.69-25.95 125.54-25.95L125.54-25.95Q118.69-25.95 118.09-16.55L118.09-16.55ZM161.14 0.55Q158.49 0.55 157.14-0.68 155.79-1.9 155.79-5.05L155.79-5.05 155.79-24.8 151.99-24.8 151.99-26.75Q154.49-27.3 154.89-27.55L154.89-27.55Q155.64-27.95 155.99-29.1L155.99-29.1Q156.29-29.85 156.79-31.8 157.29-33.75 157.54-34.85L157.54-34.85 159.84-34.85 159.84-27.75 168.69-27.75 168.69-24.8 159.84-24.8 159.84-8.6Q159.84-5.7 160.04-4.53 160.24-3.35 160.84-3 161.44-2.65 162.94-2.65L162.94-2.65Q164.39-2.65 166.19-3.05 167.99-3.45 168.89-3.9L168.89-3.9 169.54-2Q168.39-1.1 165.74-0.28 163.09 0.55 161.14 0.55L161.14 0.55ZM172.79-14.05Q172.79-18.4 174.61-21.7 176.44-25 179.41-26.75 182.39-28.5 185.64-28.5L185.64-28.5Q191.94-28.5 194.96-24.4 197.99-20.3 197.99-13.9L197.99-13.9Q197.99-9.55 196.16-6.25 194.34-2.95 191.36-1.2 188.39 0.55 185.14 0.55L185.14 0.55Q178.84 0.55 175.81-3.55 172.79-7.65 172.79-14.05L172.79-14.05ZM185.39-2.05Q189.24-2.05 191.34-5 193.44-7.95 193.44-13.6L193.44-13.6Q193.44-19 191.49-22.45 189.54-25.9 185.44-25.9L185.44-25.9Q181.59-25.9 179.46-22.95 177.34-20 177.34-14.35L177.34-14.35Q177.34-8.9 179.31-5.48 181.29-2.05 185.39-2.05L185.39-2.05ZM212.23-25.7L212.23-27.75 222.83-27.75 222.83-25.7 219.13-25.05 224.48-10.2 226.93-3.1 229.03-9.95 234.38-25.05 230.88-25.7 230.88-27.75 240.43-27.75 240.43-25.7 237.88-25.05 228.03 0.4 224.68 0.4 214.58-25.05 212.23-25.7ZM248.53-33Q245.83-33 245.83-35.85L245.83-35.85Q245.83-37.3 246.68-38.23 247.53-39.15 248.98-39.15L248.98-39.15Q250.48-39.15 251.13-38.33 251.78-37.5 251.78-36.3L251.78-36.3Q251.78-34.75 250.95-33.88 250.13-33 248.58-33L248.58-33 248.53-33ZM246.93-2.55L246.93-24.45 243.03-25.3 243.03-27.55 249.88-28.35 249.98-28.35 250.98-27.55 250.98-2.5 255.33-2.15 255.33 0 242.53 0 242.53-2.15 246.93-2.55ZM262.23-7.85L262.98-3.95Q263.53-3.1 265.28-2.45 267.03-1.8 269.03-1.8L269.03-1.8Q275.13-1.8 275.13-6.3L275.13-6.3Q275.13-8.35 273.43-9.63 271.73-10.9 267.63-12.45L267.63-12.45Q263.58-13.9 261.73-15.9 259.88-17.9 259.88-21.25L259.88-21.25Q259.88-23.4 261.2-25 262.53-26.6 264.75-27.48 266.98-28.35 269.58-28.35L269.58-28.35Q272.13-28.35 273.85-27.9 275.58-27.45 277.28-26.8L277.28-26.8 277.28-20.85 274.83-20.85 273.93-24.5Q273.58-25.15 272.15-25.6 270.73-26.05 269.03-26.05L269.03-26.05Q266.63-26.05 265.13-24.98 263.63-23.9 263.63-22.1L263.63-22.1Q263.63-20.5 264.38-19.45 265.13-18.4 266.23-17.78 267.33-17.15 269.28-16.35L269.28-16.35 270.23-15.95Q273.08-14.85 274.83-13.88 276.58-12.9 277.73-11.33 278.88-9.75 278.88-7.4L278.88-7.4Q278.88-3.7 276.05-1.58 273.23 0.55 268.53 0.55L268.53 0.55Q266.38 0.55 263.63-0.15 260.88-0.85 259.53-1.55L259.53-1.55 259.53-7.85 262.23-7.85ZM289.52-33Q286.82-33 286.82-35.85L286.82-35.85Q286.82-37.3 287.67-38.23 288.52-39.15 289.97-39.15L289.97-39.15Q291.47-39.15 292.12-38.33 292.77-37.5 292.77-36.3L292.77-36.3Q292.77-34.75 291.95-33.88 291.12-33 289.57-33L289.57-33 289.52-33ZM287.92-2.55L287.92-24.45 284.02-25.3 284.02-27.55 290.87-28.35 290.97-28.35 291.97-27.55 291.97-2.5 296.32-2.15 296.32 0 283.52 0 283.52-2.15 287.92-2.55ZM308.52 0.55Q305.87 0.55 304.52-0.68 303.17-1.9 303.17-5.05L303.17-5.05 303.17-24.8 299.37-24.8 299.37-26.75Q301.87-27.3 302.27-27.55L302.27-27.55Q303.02-27.95 303.37-29.1L303.37-29.1Q303.67-29.85 304.17-31.8 304.67-33.75 304.92-34.85L304.92-34.85 307.22-34.85 307.22-27.75 316.07-27.75 316.07-24.8 307.22-24.8 307.22-8.6Q307.22-5.7 307.42-4.53 307.62-3.35 308.22-3 308.82-2.65 310.32-2.65L310.32-2.65Q311.77-2.65 313.57-3.05 315.37-3.45 316.27-3.9L316.27-3.9 316.92-2Q315.77-1.1 313.12-0.28 310.47 0.55 308.52 0.55L308.52 0.55Z" opacity="1" transform="matrix(1,0,0,1,0,0)" fill="#000000" class="undefined-text-1" data-fill-palette-color="secondary" id="text-1"></path></svg></g></svg></g></svg></g></svg></g><g><svg viewBox="0 0 171.71860236481808 171.71860236481808" height="171.71860236481808" width="171.71860236481808"><g><svg></svg></g><g id="icon-0"><svg viewBox="0 0 171.71860236481808 171.71860236481808" height="171.71860236481808" width="171.71860236481808"><g><path d="M0 85.859c0-47.419 38.441-85.859 85.859-85.859 47.419 0 85.859 38.441 85.86 85.859 0 47.419-38.441 85.859-85.86 85.86-47.419 0-85.859-38.441-85.859-85.86zM85.859 166.876c44.745 0 81.017-36.273 81.017-81.017 0-44.745-36.273-81.017-81.017-81.017-44.745 0-81.017 36.273-81.017 81.017 0 44.745 36.273 81.017 81.017 81.017z" data-fill-palette-color="accent" fill="#000000" stroke="transparent"></path></g><g transform="matrix(1,0,0,1,52.22405438892908,35.05302388345471)"><svg viewBox="0 0 67.27049358695992 101.61255459790866" height="101.61255459790866" width="67.27049358695992"><g><svg xmlns="http://www.w3.org/2000/svg" xmlns:xlink="http://www.w3.org/1999/xlink" version="1.1" x="0" y="0" viewBox="24.761856079101562 5 59.5826416015625 90" enable-background="new 0 0 100 100" xml:space="preserve" height="101.61255459790866" width="67.27049358695992" class="icon-s-0" data-fill-palette-color="accent" id="s-0"><g fill="#d2d6dc" data-fill-palette-color="accent"><path d="M73.76 35.603C86.875 48 91.5 66.25 65.633 82.379c3.64-4.928 5.654-9.794 6.096-14.669 0.951-10.516-5.606-19.072-12.835-26.752C48.298 29.7 47.51 18.84 56.413 6.782 54.578 22.641 64.6 26.944 73.76 35.603zM45.288 93.716c6.184-13.053 7.276-20.302-8.197-34.939-4.204-3.977-7.451-8.029-9.71-12.086-2.881 6.435-5.164 20.081 3.244 27.935C36.312 79.938 44.125 83.125 45.288 93.716zM56.709 43.014C48.183 33.954 41.999 21.253 54 5 21.497 17.692 19.625 38.125 39.151 56.597 55.603 72.158 54.75 80.75 48 95 79.875 71.5 68.709 55.764 56.709 43.014z" fill="#000000" data-fill-palette-color="accent"></path></g><g display="none" fill="#d2d6dc" data-fill-palette-color="accent"><path display="inline" d="M54 5C16.75 17.5 14.875 56.5 26.75 70.762c10.558 12.68 15.407 7.949 19.675 20.824" fill="#000000" data-fill-palette-color="accent"></path><line display="inline" x1="56.988" y1="5.261" x2="45.528" y2="136.262" fill="#000000" data-fill-palette-color="accent"></line><line display="inline" x1="54.131" y1="3.502" x2="42.67" y2="134.502" fill="#000000" data-fill-palette-color="accent"></line><path display="inline" d="M42.875 76" fill="#000000" data-fill-palette-color="accent"></path></g></svg></g></svg></g></svg></g></svg></g></svg></g><defs></defs></svg><rect width="395.52" height="114.61228253520841" fill="none" stroke="none" visibility="hidden"></rect></g></svg></g></svg>