<svg xmlns="http://www.w3.org/2000/svg" version="1.1" xmlns:xlink="http://www.w3.org/1999/xlink" xmlns:svgjs="http://svgjs.dev/svgjs" width="1000" height="750" viewBox="0 0 1000 750"><rect width="1000" height="750" fill="#ffffff"></rect><g transform="matrix(0.834,0,0,0.834,83,40.37045073326243)"><svg viewBox="0 0 448 360" data-background-color="#e2e8ec" preserveAspectRatio="xMidYMid meet" height="803" width="1000" xmlns="http://www.w3.org/2000/svg" xmlns:xlink="http://www.w3.org/1999/xlink"><g id="tight-bounds" transform="matrix(1,0,0,1,0,-0.11904140046539169)"><svg viewBox="0 0 448 360" height="360" width="448"><g><svg></svg></g><g><svg viewBox="0 0 448 360" height="360" width="448"><g><path transform="translate(36.9151,-7.08178) scale(0.00624,0.00624)" d="M25167 8301c221 0 400 179 400 400 0 221-179 400-400 400h-3824l-2753 2753c-156 156-409 156-566 0-156-156-156-409 0-566l2188-2188h-6475c-1847 0-3071 431-3819 1301-760 885-1068 2254-1068 4110 0 11 0 22-1 33l34 5884 2356-2356c156-156 409-156 566 0 156 156 156 409 0 566l-2915 2915c33 5746 31 11443-2 17189 4087 4041 8117 8068 12157 12154h4070c221 0 400 179 400 400 0 221-179 400-400 400h-3279l4160 4208 1-1c1313 1313 2498 2062 3660 2151 1146 87 2316-474 3622-1779l4579-4579h-3323c-221 0-400-179-400-400 0-221 179-400 400-400h4123l2666-2666c156-156 409-156 566 0 156 156 156 409 0 566l-2101 2101h6475c1847 0 3071-431 3819-1301 760-885 1068-2254 1068-4110h2l-34-5917-2568 2568c-156 156-409 156-566 0-156-156-156-409 0-566l3127-3127c-33-5746-31-11443 2-17189-4087-4041-8117-8068-12157-12154h-4193c-221 0-400-179-400-400 0-221 179-400 400-400h3402l-4141-4189c-7-6-13-12-20-18-1313-1313-2498-2062-3660-2151-1146-87-2316 474-3622 1779l-4579 4579h3024zM13737 8301h7275l5144-5144c1483-1483 2856-2116 4247-2010 1374 104 2719 934 4167 2382 8 8 15 15 22 23l4695 4749h6977c2096 0 3515 524 4425 1583 898 1045 1261 2582 1261 4629 0 13-1 25-2 37l-36 6373 4559 4508 1-1c1448 1448 2278 2792 2382 4167 106 1391-528 2764-2010 4247l-4934 4934 38 6710h2c0 2047-364 3584-1261 4629-910 1059-2329 1583-4425 1583h-7275l-5144 5144c-1483 1483-2856 2116-4247 2010-1374-104-2719-934-4167-2382l1-1-4718-4772h-6977c-2096 0-3515-524-4425-1583-898-1045-1261-2582-1261-4629h2l37-6410-4537-4485c-8-7-16-14-23-22-1448-1448-2278-2792-2382-4167-106-1391 528-2764 2010-4247l4934-4934-38-6672c-1-12-2-25-2-37 0-2047 364-3584 1261-4629 910-1059 2329-1583 4425-1583zM8141 30000l-44-7653-4374 4374c-1305 1305-1866 2476-1779 3622 88 1162 838 2348 2151 3660 6 6 13 13 18 20l3983 3937 45-7961zM8882 39860l-32 5627h2c0 1857 308 3226 1068 4110 748 871 1972 1301 3819 1301h6186l-5380-5442-5662-5597zM46264 9101h-6186l5380 5442 5662 5597 32-5594c-1-11-1-22-1-33 0-1857-308-3226-1068-4110-748-871-1972-1301-3819-1301zM51906 22039l-45 7961 44 7653 4374-4374c1305-1305 1866-2476 1779-3622-88-1163-838-2348-2151-3660l1-1-4002-3956z" fill="#000000" fill-rule="nonzero" stroke="none" stroke-width="1" stroke-linecap="butt" stroke-linejoin="miter" stroke-miterlimit="10" stroke-dasharray="" stroke-dashoffset="0" font-family="none" font-weight="none" font-size="none" text-anchor="none" style="mix-blend-mode: normal" data-fill-palette-color="tertiary"></path></g><g transform="matrix(1,0,0,1,112,152.204220027899)"><svg viewBox="0 0 224 55.59155994420199" height="55.59155994420199" width="224"><g><svg viewBox="0 0 346.32706234487046 85.95027520823324" height="55.59155994420199" width="224"><g><rect width="3.0769654325299687" height="74.63120857444274" x="232.05488333123031" y="5.659533316895249" fill="#000000" opacity="1" stroke-width="0" stroke="transparent" fill-opacity="1" class="rect-in-0" data-fill-palette-color="primary" rx="1%" id="in-0" data-palette-color="#151414"></rect></g><g transform="matrix(1,0,0,1,0,11.878800698098807)"><svg viewBox="0 0 224.00000000000003 62.19267381203562" height="62.19267381203562" width="224.00000000000003"><g><svg viewBox="0 0 224.00000000000003 62.19267381203562" height="62.19267381203562" width="224.00000000000003"><g><svg viewBox="0 0 224.00000000000003 34.1198738170347" height="34.1198738170347" width="224.00000000000003"><g transform="matrix(1,0,0,1,0,0)"><svg width="224.00000000000003" viewBox="2 -32.52 216.69 33.010000000000005" height="34.1198738170347" data-palette-color="#151414"><g class="undefined-text-0" data-fill-palette-color="primary" id="text-0"><path d="M2.98-23.93L2.98-23.93Q2.98-27.69 5.86-30.1 8.74-32.52 12.55-32.52L12.55-32.52Q13.62-32.52 14.58-32.4 15.53-32.28 16.14-32.13 16.75-31.98 17.9-31.67 19.04-31.35 19.92-31.15L19.92-31.15Q20.51-28.56 20.51-24.17L20.51-24.17Q20.51-23.83 20.02-23.83L20.02-23.83Q18.85-23.83 18.75-24.32L18.75-24.32Q18.51-26.46 16.67-28.49 14.84-30.52 12.21-30.52L12.21-30.52Q9.28-30.52 8.08-29.05 6.88-27.59 6.88-25.44L6.88-25.44Q6.88-24.51 7.23-23.66 7.57-22.8 7.91-22.24 8.25-21.68 9.16-20.95 10.06-20.21 10.47-19.92 10.89-19.63 12.13-18.85 13.38-18.07 13.72-17.87L13.72-17.87Q13.96-17.72 15.43-16.82 16.89-15.92 17.43-15.55 17.97-15.19 19.12-14.23 20.26-13.28 20.78-12.55 21.29-11.82 21.75-10.72 22.22-9.62 22.22-8.45L22.22-8.45Q22.22-4.54 19.17-2.03 16.11 0.49 12.01 0.49L12.01 0.49Q10.84 0.49 9.52 0.32 8.2 0.15 7.32-0.02 6.45-0.2 5.1-0.51 3.76-0.83 3.22-0.93L3.22-0.93Q2-6.93 2-8.69L2-8.69Q2-8.98 2.78-8.98L2.78-8.98Q3.66-8.98 4-8.54L4-8.54Q5.66-1.51 12.11-1.51L12.11-1.51Q14.55-1.51 16.26-2.98 17.97-4.44 17.97-7.13L17.97-7.13Q17.97-8.11 17.68-8.94 17.38-9.77 17.07-10.3 16.75-10.84 15.94-11.45 15.14-12.06 14.7-12.35 14.26-12.65 13.09-13.28 11.91-13.92 11.47-14.16L11.47-14.16Q10.06-14.99 9.5-15.33 8.94-15.67 7.64-16.53 6.35-17.38 5.76-18.04 5.18-18.7 4.39-19.65 3.61-20.61 3.3-21.68 2.98-22.75 2.98-23.93ZM31.64-32.08L31.64-32.08Q32.42-32.08 37.3-32.32L37.3-32.32Q37.4-32.03 37.4-31.64L37.4-31.64Q37.4-30.91 37.2-30.91L37.2-30.91Q36.72-30.91 35.45-30.57 34.18-30.22 34.08-29.88L34.08-29.88Q33.64-28.17 33.64-25.34L33.64-25.34 33.64-14.45Q33.64-8.94 35.98-5.66 38.33-2.39 42.62-2.39L42.62-2.39Q50.97-2.39 50.97-13.38L50.97-13.38 50.97-25.59Q50.97-28.56 50.63-29.88L50.63-29.88Q50.49-30.27 48.95-30.64 47.41-31.01 46.77-31.01L46.77-31.01Q46.58-31.01 46.58-31.57 46.58-32.13 46.77-32.32L46.77-32.32Q47.41-32.28 49.31-32.15 51.22-32.03 52.54-32.03L52.54-32.03Q53.81-32.03 55.73-32.18 57.66-32.32 58.01-32.32L58.01-32.32Q58.1-32.03 58.1-31.59L58.1-31.59Q58.1-31.01 57.91-31.01L57.91-31.01Q57.42-31.01 55.78-30.62 54.15-30.22 54.05-29.88L54.05-29.88Q53.66-28.37 53.66-25.34L53.66-25.34 53.66-13.48Q53.66-5.91 50.49-2.95 47.31 0 41.45 0L41.45 0Q35.64 0 32.52-3.42 29.39-6.84 29.39-14.45L29.39-14.45 29.39-25.54Q29.39-28.56 29.05-29.88L29.05-29.88Q28.9-30.27 27.66-30.59 26.41-30.91 25.78-30.91L25.78-30.91Q25.58-30.91 25.58-31.54L25.58-31.54Q25.58-32.13 25.78-32.32L25.78-32.32Q31.39-32.08 31.64-32.08ZM67.23-32.08L67.23-32.08Q69.04-32.08 71.72-32.32L71.72-32.32Q72.07-31.2 81.39-7.86L81.39-7.86Q81.44-7.76 81.59-7.76L81.59-7.76Q81.78-7.76 81.83-7.96L81.83-7.96Q86.62-19.19 89.45-26.46L89.45-26.46Q89.45-26.46 91.4-32.32L91.4-32.32Q94.53-32.13 95.45-32.13L95.45-32.13Q98.48-32.13 100.92-32.32L100.92-32.32Q101.07-31.88 101.07-31.59L101.07-31.59Q101.07-30.91 100.83-30.91L100.83-30.91 100.73-30.91Q100.19-30.91 99.31-30.59 98.43-30.27 97.99-29.93L97.99-29.93Q97.41-29.49 97.41-26.66L97.41-26.66Q97.41-25.88 97.85-6.84L97.85-6.84Q97.9-4.05 98.58-2.34L98.58-2.34Q98.77-1.9 100.04-1.59 101.31-1.27 101.85-1.27L101.85-1.27Q102.05-1.27 102.05-0.59L102.05-0.59Q102.05-0.15 101.95 0.15L101.95 0.15Q97.07-0.1 96.14-0.1L96.14-0.1Q95.89-0.1 90.28 0.15L90.28 0.15Q90.08-0.05 90.08-0.63L90.08-0.63Q90.08-1.27 90.28-1.27L90.28-1.27Q90.77-1.27 91.77-1.51 92.77-1.76 93.21-2L93.21-2Q93.79-2.34 93.79-4.1L93.79-4.1 93.79-6.69 93.21-23.88Q93.16-24.66 92.94-25.71 92.72-26.76 92.48-26.76L92.48-26.76Q92.38-26.76 92.23-26.42L92.23-26.42 82.03-2Q81.1 0.1 80.22 0.1L80.22 0.1Q80.07 0.1 79.78 0L79.78 0 68.6-28.42Q68.5-23.73 68.31-17.68 68.11-11.62 67.96-7.69 67.82-3.76 67.82-3.66L67.82-3.66Q67.82-2.78 68.11-2.39 68.4-2 69.89-1.64 71.38-1.27 71.87-1.27L71.87-1.27Q72.07-1.27 72.07-0.54L72.07-0.54Q72.07-0.15 71.97 0.15L71.97 0.15Q67.08-0.1 66.3-0.1L66.3-0.1Q66.21-0.1 60.59 0.15L60.59 0.15Q60.35-0.1 60.35-0.59L60.35-0.59Q60.35-1.27 60.59-1.27L60.59-1.27Q61.27-1.27 62.62-1.59 63.96-1.9 64.4-2.34L64.4-2.34Q65.18-3.22 65.28-6.59L65.28-6.59Q65.38-11.67 65.5-16.6 65.62-21.53 65.72-24.34 65.82-27.15 65.82-27.93L65.82-27.93Q65.82-29.15 65.62-29.88L65.62-29.88Q65.47-30.27 63.96-30.59 62.45-30.91 61.76-30.91L61.76-30.91Q61.57-30.91 61.57-31.59L61.57-31.59Q61.57-32.13 61.76-32.32L61.76-32.32Q62.59-32.28 63.59-32.23 64.59-32.18 65.42-32.13 66.25-32.08 67.23-32.08ZM109.17-6.59L109.17-25.54Q109.17-28.56 108.83-29.88L108.83-29.88Q108.68-30.27 107.44-30.59 106.19-30.91 105.56-30.91L105.56-30.91Q105.36-30.91 105.36-31.54L105.36-31.54Q105.36-32.13 105.56-32.32L105.56-32.32Q111.17-32.08 111.42-32.08L111.42-32.08Q112.2-32.08 117.08-32.32L117.08-32.32Q117.18-32.03 117.18-31.59L117.18-31.59Q117.18-30.91 116.98-30.91L116.98-30.91Q116.5-30.91 115.23-30.57 113.96-30.22 113.86-29.88L113.86-29.88Q113.42-28.17 113.42-25.34L113.42-25.34 113.42-6.79Q113.42-3.96 113.86-2.25L113.86-2.25Q113.96-1.9 115.23-1.59 116.5-1.27 116.98-1.27L116.98-1.27Q117.18-1.27 117.18-0.54L117.18-0.54Q117.18-0.15 117.08 0.15L117.08 0.15Q112.2-0.1 111.42-0.1L111.42-0.1Q111.17-0.1 105.56 0.15L105.56 0.15Q105.36-0.05 105.36-0.59L105.36-0.59Q105.36-1.27 105.56-1.27L105.56-1.27Q106.19-1.27 107.44-1.56 108.68-1.86 108.83-2.25L108.83-2.25Q109.17-3.56 109.17-6.59L109.17-6.59ZM133.05-30.08L133.05-30.08Q130.85-30.08 129.63-29.74L129.63-29.74Q129.43-29.69 129.31-29.37 129.19-29.05 129.12-27.91 129.04-26.76 129.04-24.37L129.04-24.37 129.04-18.46Q129.04-17.04 133.29-17.04L133.29-17.04 134.51-17.04Q136.22-17.04 138.05-18.75 139.88-20.46 139.88-23.29L139.88-23.29Q139.88-30.08 133.05-30.08ZM133.83-32.23L133.83-32.23Q135.49-32.23 137.2-31.74 138.91-31.25 140.57-30.27 142.23-29.3 143.3-27.49 144.37-25.68 144.37-23.29L144.37-23.29Q144.37-21.24 142.84-18.99 141.3-16.75 138.66-15.53L138.66-15.53Q138.17-15.33 138.37-15.04L138.37-15.04Q140.81-9.91 143.98-6.45L143.98-6.45Q148.67-1.32 151.6-1.32L151.6-1.32Q151.75-1.03 151.75-0.63L151.75-0.63Q151.75-0.2 151.6 0.1L151.6 0.1Q151.06 0.24 150.28 0.24L150.28 0.24Q143.45 0.24 138.42-6.79L138.42-6.79Q137.64-7.86 136.64-9.35 135.63-10.84 135.17-11.5 134.71-12.16 134.1-12.94 133.49-13.72 133.02-14.11 132.56-14.5 132.02-14.75L132.02-14.75Q131.48-14.94 130.21-14.94L130.21-14.94Q129.82-14.94 129.63-14.92 129.43-14.89 129.24-14.7 129.04-14.5 129.04-14.11L129.04-14.11 129.04-6.93Q129.04-3.66 129.43-2.69L129.43-2.69Q129.68-2.05 131.17-1.66 132.66-1.27 133.29-1.27L133.29-1.27Q133.49-1.27 133.49-0.59L133.49-0.59Q133.49-0.15 133.39 0.15L133.39 0.15Q128.51-0.1 127.04-0.1L127.04-0.1 121.08 0.15Q120.94 0 120.94-0.73L120.94-0.73Q120.94-1.37 121.08-1.37L121.08-1.37Q121.77-1.37 122.99-1.66 124.21-1.95 124.45-2.39L124.45-2.39Q124.79-2.98 124.79-6.98L124.79-6.98 124.79-25.44Q124.79-28.32 124.45-29.64L124.45-29.64Q124.31-30.03 123.01-30.37 121.72-30.71 121.08-30.71L121.08-30.71Q120.89-30.71 120.89-31.3L120.89-31.3Q120.89-31.93 121.08-32.13L121.08-32.13 126.94-32.03Q128.41-32.03 130.41-32.13 132.41-32.23 133.83-32.23ZM168.64-32.37L169.08-32.23 178.84-6.45Q179.72-4.15 180.26-2.93L180.26-2.93Q180.55-2.2 181.77-1.73 183-1.27 183.58-1.27L183.58-1.27Q183.78-1.27 183.78-0.34L183.78-0.34Q183.78-0.15 183.68 0.15L183.68 0.15Q178.8-0.1 178.31-0.1L178.31-0.1Q178.26-0.1 172.64 0.15L172.64 0.15Q172.45-0.05 172.47-0.66 172.5-1.27 172.69-1.27L172.69-1.27Q173.28-1.27 174.16-1.51 175.04-1.76 175.18-2.15L175.18-2.15Q175.28-2.54 175.28-2.93L175.28-2.93Q175.28-3.56 175.11-4.42 174.94-5.27 174.79-5.76L174.79-5.76 174.6-6.3 172.59-11.82Q172.45-12.01 172.3-12.01L172.3-12.01Q170.4-12.16 168.59-12.16L168.59-12.16Q166.05-12.16 162.39-11.91L162.39-11.91 162.15-11.77 160.05-6.4Q159.22-3.96 159.22-3.03L159.22-3.03Q159.22-2.34 159.61-2.05L159.61-2.05Q160.05-1.71 161.02-1.49 162-1.27 162.44-1.27L162.44-1.27Q162.59-1.27 162.61-0.68 162.63-0.1 162.54 0.15L162.54 0.15Q157.65-0.1 157.51-0.1L157.51-0.1Q156.53-0.1 155.8-0.05 155.07 0 154.16 0.05 153.26 0.1 152.43 0.15L152.43 0.15Q152.23-0.05 152.23-0.59L152.23-0.59Q152.23-1.27 152.43-1.27L152.43-1.27Q153.01-1.27 153.94-1.51 154.87-1.76 155.21-2.2L155.21-2.2Q156.24-3.52 157.51-6.79L157.51-6.79 166-28.61Q166.1-28.86 166.27-29.39 166.44-29.93 166.54-30.2 166.64-30.47 166.83-30.88 167.03-31.3 167.18-31.49 167.32-31.69 167.54-31.93 167.76-32.18 168.03-32.28 168.3-32.37 168.64-32.37L168.64-32.37ZM163.42-14.6L163.42-14.6Q165.95-14.5 166.88-14.5L166.88-14.5Q169.03-14.5 171.33-14.65L171.33-14.65 171.47-14.89 167.52-25.68 163.32-14.79Q163.32-14.6 163.42-14.6ZM211.56-10.4L211.56-25.59Q211.56-28.56 211.22-29.88L211.22-29.88Q211.07-30.27 209.53-30.64 207.99-31.01 207.36-31.01L207.36-31.01Q207.16-31.01 207.16-31.57 207.16-32.13 207.36-32.32L207.36-32.32Q207.99-32.28 209.9-32.15 211.8-32.03 213.12-32.03L213.12-32.03Q214.39-32.03 216.32-32.18 218.25-32.32 218.59-32.32L218.59-32.32Q218.69-32.03 218.69-31.59L218.69-31.59Q218.69-31.01 218.49-31.01L218.49-31.01Q218-31.01 216.37-30.62 214.73-30.22 214.63-29.88L214.63-29.88Q214.24-28.37 214.24-25.34L214.24-25.34 214.24-6.79Q214.24-3.76 214.39 0.05L214.39 0.05Q214.19 0.24 213.46 0.24L213.46 0.24Q212.63 0.24 211.85-0.88L211.85-0.88 192.9-27.73 192.9-6.88Q192.9-3.66 193.25-2.34L193.25-2.34Q193.34-2 194.88-1.64 196.42-1.27 196.91-1.27L196.91-1.27Q197.06-1.27 197.08-0.68 197.1-0.1 197.01 0.15L197.01 0.15Q192.12-0.1 191.39-0.1L191.39-0.1 185.78 0.15Q185.63 0 185.63-0.59L185.63-0.59Q185.63-1.27 185.78-1.27L185.78-1.27Q186.46-1.27 188-1.64 189.54-2 189.68-2.44L189.68-2.44Q190.17-3.71 190.17-7.03L190.17-7.03 190.17-26.22Q190.17-28.61 189.83-29.88L189.83-29.88Q189.68-30.27 188.17-30.59 186.65-30.91 185.97-30.91L185.97-30.91Q185.78-30.91 185.78-31.52 185.78-32.13 185.97-32.32L185.97-32.32Q189.78-32.23 190.95-32.23L190.95-32.23Q193.49-32.23 194.86-32.32L194.86-32.32Q196.66-29 211.41-8.4L211.41-8.4Q211.56-9.23 211.56-10.4L211.56-10.4Z" fill="#000000" data-fill-palette-color="primary"></path></g></svg></g></svg></g><g transform="matrix(1,0,0,1,92.48960000000002,42.17475714826499)"><svg viewBox="0 0 131.5104 20.017916663770638" height="20.017916663770638" width="131.5104"><g transform="matrix(1,0,0,1,0,0)"><svg width="131.5104" viewBox="0.5 -43.4 287.72 43.8" height="20.017916663770638" data-palette-color="#0f0e0e"><path d="M14.2 0L5.6 0 5.6-34.7 0.5-34.7 0.5-42.95 19.3-42.95 19.3-34.7 14.2-34.7 14.2 0ZM21.55 0L21.55-43.2 30.55-43.2 30.55-33Q31.95-37 35.9-37L35.9-37Q39.6-37 41.5-34.65 43.4-32.3 43.4-28.2L43.4-28.2 43.4 0 34.65 0 34.65-27.65Q34.65-28.85 34.1-29.6 33.55-30.35 32.5-30.35L32.5-30.35Q31.6-30.35 31.07-29.58 30.55-28.8 30.55-27.7L30.55-27.7 30.55 0 21.55 0ZM57.05 0.4Q51.4 0.4 48.95-2.7 46.5-5.8 46.5-11.95L46.5-11.95 46.5-26.65Q46.5-31.7 49.4-34.35 52.3-37 57.5-37L57.5-37Q68.05-37 68.05-26.65L68.05-26.65 68.05-24Q68.05-20 67.95-17.5L67.95-17.5 55.25-17.5 55.25-10.4Q55.25-8.5 55.65-7.43 56.05-6.35 57.34-6.35L57.34-6.35Q58.34-6.35 58.77-6.95 59.2-7.55 59.27-8.33 59.34-9.1 59.34-10.6L59.34-10.6 59.34-14.15 68.05-14.15 68.05-12.05Q68.05-5.65 65.57-2.63 63.09 0.4 57.05 0.4L57.05 0.4ZM55.2-21.85L59.34-21.85 59.34-26.55Q59.34-30.5 57.4-30.5L57.4-30.5Q55.2-30.5 55.2-26.55L55.2-26.55 55.2-21.85ZM83.04 0L83.04-42.95 94.69-42.95Q99.39-42.95 101.52-40.65 103.64-38.35 103.64-33.15L103.64-33.15 103.64-31.25Q103.64-25.1 99.24-23.9L99.24-23.9Q101.94-23.2 103.04-20.65 104.14-18.1 104.14-13.9L104.14-13.9Q104.14-7.05 102.09-3.53 100.04 0 94.69 0L94.69 0 83.04 0ZM91.44-26.8L93.19-26.8Q94.29-26.8 94.69-27.63 95.09-28.45 95.09-29.95L95.09-29.95 95.09-34.25Q95.09-36.35 93.24-36.35L93.24-36.35 91.44-36.35 91.44-26.8ZM92.29-7.55Q95.64-7.55 95.64-10.75L95.64-10.75 95.64-16.1Q95.64-18.05 95.07-19.05 94.49-20.05 93.04-20.05L93.04-20.05 91.44-20.05 91.44-7.6 92.29-7.55ZM115.74 0L106.84 0 106.84-43.2 115.74-43.2 115.74 0ZM125.89 0.4Q121.64 0.4 120.06-2.43 118.49-5.25 118.49-10.5L118.49-10.5Q118.49-14.8 119.61-17.1 120.74-19.4 122.74-20.48 124.74-21.55 128.84-22.85L128.84-22.85 131.24-23.65 131.24-23.75 131.24-27.4Q131.24-28.85 130.66-29.63 130.09-30.4 129.29-30.4L129.29-30.4Q128.59-30.4 128.06-29.75 127.54-29.1 127.54-28L127.54-28 127.54-25.8 119.04-25.8 119.04-27Q119.04-32.4 121.56-34.7 124.09-37 129.79-37L129.79-37Q134.34-37 137.19-34.63 140.04-32.25 140.04-27.9L140.04-27.9 140.04 0 131.34 0 131.34-4.35Q130.69-2.1 129.26-0.85 127.84 0.4 125.89 0.4L125.89 0.4ZM129.34-6.4Q130.34-6.4 130.76-7.23 131.19-8.05 131.19-9.25L131.19-9.25 131.19-19.45Q129.24-18.7 128.31-17.55 127.39-16.4 127.39-14.35L127.39-14.35 127.39-9.65Q127.39-6.4 129.34-6.4L129.34-6.4ZM154.38 0.4Q148.38 0.4 145.73-2.65 143.08-5.7 143.08-12L143.08-12 143.08-23.3Q143.08-28.05 144.11-31.03 145.13-34 147.56-35.5 149.98-37 154.28-37L154.28-37Q158.98-37 161.93-34.55 164.88-32.1 164.88-27.7L164.88-27.7 164.88-22.1 155.98-22.1 155.98-27.25Q155.98-28.7 155.58-29.48 155.18-30.25 154.03-30.25L154.03-30.25Q151.88-30.25 151.88-27.2L151.88-27.2 151.88-9.45Q151.88-8.2 152.41-7.33 152.93-6.45 153.98-6.45L153.98-6.45Q155.03-6.45 155.56-7.3 156.08-8.15 156.03-9.5L156.03-9.5 155.98-15.65 164.88-15.65 164.88-9.25Q164.88-4.75 161.96-2.18 159.03 0.4 154.38 0.4L154.38 0.4ZM176.58 0L167.93 0 167.93-43.2 176.58-43.2 176.58-24 180.78-36.6 189.83-36.6 184.33-20.7 191.33 0 182.03 0 176.58-17.25 176.58 0ZM218.18 0L207.68 0 203.08-42.95 211.48-42.95 213.88-15.85 216.28-42.95 224.28-42.95 226.58-15.85 228.88-42.95 237.38-42.95 232.68 0 222.38 0 220.23-20.7 218.18 0ZM250.42 0.4Q239.47 0.4 239.47-10.95L239.47-10.95 239.47-25.65Q239.47-30.85 242.4-33.93 245.32-37 250.42-37L250.42-37Q255.52-37 258.45-33.93 261.37-30.85 261.37-25.65L261.37-25.65 261.37-10.95Q261.37 0.4 250.42 0.4L250.42 0.4ZM250.42-6.35Q251.47-6.35 251.97-7.1 252.47-7.85 252.47-9.15L252.47-9.15 252.47-27.05Q252.47-30.25 250.42-30.25L250.42-30.25Q248.37-30.25 248.37-27.05L248.37-27.05 248.37-9.15Q248.37-7.85 248.87-7.1 249.37-6.35 250.42-6.35L250.42-6.35ZM273.52 0L264.62 0 264.62-43.2 273.52-43.2 273.52 0ZM277.82 0L277.82-28.35 276.27-28.35 276.32-35 277.82-35 277.82-37.5Q277.82-43.4 283.72-43.4L283.72-43.4Q286.52-43.4 288.22-42.7L288.22-42.7 288.22-37.3Q287.72-37.45 287.42-37.45L287.42-37.45Q286.72-37.45 286.52-36.95 286.32-36.45 286.32-35.45L286.32-35.45 286.32-35 288.22-35 288.22-28.25 286.52-28.25 286.52 0 277.82 0Z" opacity="1" transform="matrix(1,0,0,1,0,0)" fill="#000000" class="undefined-text-1" data-fill-palette-color="secondary" id="text-1"></path></svg></g></svg></g></svg></g></svg></g><g transform="matrix(1,0,0,1,243.18673209499056,0)"><svg viewBox="0 0 103.1403302498799 85.95027520823324" height="85.95027520823324" width="103.1403302498799"><g><svg xmlns="http://www.w3.org/2000/svg" xmlns:xlink="http://www.w3.org/1999/xlink" version="1.1" x="0" y="0" viewBox="0 10 120 100" style="enable-background:new 0 0 120 120;" xml:space="preserve" height="85.95027520823324" width="103.1403302498799" class="icon-icon-0" data-fill-palette-color="accent" id="icon-0"><g fill="#262424" data-fill-palette-color="accent"><path d="M50 25h15c4.3 0 7.5-3.2 7.5-7.5S69.3 10 65 10H50c-4.3 0-7.5 3.2-7.5 7.5S45.7 25 50 25z" fill="#000000" data-fill-palette-color="accent"></path><path d="M110 15H82.3c0 0 0.2 1.8 0.2 2.5C82.5 27.2 74.8 35 65 35H50c-9.8 0-17.5-7.8-17.5-17.5 0-0.7 0-2.5 0.2-2.5H10C4.5 15 0 19.5 0 25v75c0 5.5 4.5 10 10 10h100c5.5 0 10-4.5 10-10V25C120 19.5 115.5 15 110 15zM49.3 90H20.7c-3.2 0-5.7-3-5.7-6.2 0-5 5.2-7.8 10.7-10 3.8-1.5 4.3-3 4.3-4.8 0-1.5-1-3-2.3-4.3-2.2-2-3.5-5-3.5-8.2C24.3 50.2 28 45 34.8 45c6.7 0 10.5 5.2 10.5 11.5 0 3.2-1.2 6.2-3.5 8.2-1.2 1.2-2.3 2.8-2.3 4.3 0 1.5 0.5 3 4.3 4.8 5.5 2.2 10.7 5 10.7 10C55 87 52.5 90 49.3 90zM105 80c0 1.5-1 2.5-2.5 2.5h-35c-1.5 0-2.5-1-2.5-2.5v-5c0-1.5 1-2.5 2.5-2.5h35c1.5 0 2.5 1 2.5 2.5V80zM110 60c0 1.5-1 2.5-2.5 2.5h-40c-1.5 0-2.5-1-2.5-2.5v-5c0-1.5 1-2.5 2.5-2.5h40c1.5 0 2.5 1 2.5 2.5V60z" fill="#000000" data-fill-palette-color="accent"></path></g></svg></g></svg></g></svg></g></svg></g></svg></g><defs></defs></svg><rect width="448" height="360" fill="none" stroke="none" visibility="hidden"></rect></g></svg></g></svg>